<svg class="icon" style="width: 1em;height: 1em;vertical-align: middle;fill: currentColor;overflow: hidden;"
    viewBox="0 0 1024 1024" version="1.1" xmlns="http://www.w3.org/2000/svg" p-id="19211">
    <path
        d="M230.604893 291.409755c-30.99491-15.829443-34.318793-58.817932-6.125785-79.223215l260.208852-188.321379a46.578362 46.578362 0 0 1 54.62208 0l260.208852 188.321379c28.193009 20.405283 24.869126 63.393771-6.125785 79.223215z"
        fill="#FCCD81" p-id="19212"></path>
    <path
        d="M799.518892 212.18854L539.31004 23.867161a46.578362 46.578362 0 0 0-54.62208 0l-1.501947 1.087962 258.706905 187.233417c28.193009 20.405283 24.869126 63.393771-6.125785 79.223215h57.625974c30.99491-15.829443 34.318793-58.819932 6.125785-79.223215z"
        fill="#E9B665" p-id="19213"></path>
    <path
        d="M793.395107 1008.986528H230.604893v-717.574773l254.083067-183.887535a46.578362 46.578362 0 0 1 54.62208 0l254.083067 183.887535v717.574773z"
        fill="#365E7D" p-id="19214"></path>
    <path
        d="M539.31004 107.52222a46.578362 46.578362 0 0 0-54.62208 0l-1.501947 1.087962 252.58112 182.801573v717.574773h57.625974v-717.574773z"
        fill="#2B4D66" p-id="19215"></path>
    <path
        d="M230.608893 291.411755v71.257495h-101.076447c-17.419388 0-31.538891-14.119504-31.538891-31.538891v-8.179713c0-17.419388 14.119504-31.538891 31.538891-31.538891z"
        fill="#FCCD81" p-id="19216"></path>
    <path d="M230.604893 362.66925H164.299224V990.72517a18.259358 18.259358 0 0 0 18.259358 18.259358h48.046311z"
        fill="#D8ECFE" p-id="19217"></path>
    <path
        d="M793.395107 362.66925h101.068447c17.421388 0 31.542891-14.123503 31.542891-31.542891v-8.171713c0-17.421388-14.123503-31.542891-31.542891-31.542891h-101.068447z"
        fill="#FCCD81" p-id="19218"></path>
    <path
        d="M894.463554 291.409755H836.83758c17.421388 0 31.542891 14.123503 31.542891 31.542891v8.171713c0 17.421388-14.123503 31.542891-31.542891 31.542891h57.625974c17.421388 0 31.542891-14.123503 31.542891-31.542891v-8.171713c0-17.419388-14.121504-31.542891-31.542891-31.542891z"
        fill="#E9B665" p-id="19219"></path>
    <path d="M793.395107 362.66925h66.305669V990.72517a18.259358 18.259358 0 0 1-18.259358 18.259358h-48.046311z"
        fill="#B3DAFE" p-id="19220"></path>
    <path
        d="M511.999 489.838779m-194.765153 0a194.765153 194.765153 0 1 0 389.530306 0 194.765153 194.765153 0 1 0-389.530306 0Z"
        fill="#D8ECFE" p-id="19221"></path>
    <path
        d="M511.999 295.073626a196.373096 196.373096 0 0 0-28.812987 2.125926c93.900699 13.92551 165.952166 94.864665 165.952166 192.639227s-72.049467 178.713717-165.952166 192.639228a196.373096 196.373096 0 0 0 28.812987 2.125925c107.566218 0 194.765153-87.198934 194.765153-194.765153s-87.198934-194.765153-194.765153-194.765153z"
        fill="#B3DAFE" p-id="19222"></path>
    <path
        d="M606.43168 850.516099m-60.451875 0a60.451875 60.451875 0 1 0 120.90375 0 60.451875 60.451875 0 1 0-120.90375 0Z"
        fill="#FCCD81" p-id="19223"></path>
    <path
        d="M606.43168 790.064224a60.171885 60.171885 0 0 0-28.812987 7.295744c18.845337 10.23564 31.638888 30.202938 31.638888 53.156131s-12.79355 42.920491-31.638888 53.156131a60.193884 60.193884 0 0 0 28.812987 7.295744c33.386826 0 60.451875-27.065048 60.451875-60.451875s-27.065048-60.451875-60.451875-60.451875zM164.291224 291.411755h66.317669v71.257495h-66.317669z"
        fill="#E9B665" p-id="19224"></path>
    <path
        d="M894.463554 276.412282h-66.629658c11.981579-23.31318 4.899828-60.059889-19.531313-76.369315L548.103731 11.703589a61.537837 61.537837 0 0 0-72.217461 0.007999L215.699417 200.038967c-23.021191 16.697413-32.470858 48.580292-19.533313 76.373315H129.536446c-25.665098 0-46.542364 20.877266-46.542364 46.540364v8.171713c0 25.663098 20.879266 46.542364 46.542364 46.542364h19.763305v613.058447c0 18.339355 14.919475 33.258831 33.258831 33.258831h658.880836c18.339355 0 33.258831-14.919475 33.258831-33.258831V435.004707c0-8.285709-6.715764-14.999473-14.999473-14.999473s-14.999473 6.713764-14.999472 14.999473v555.720463c0 1.795937-1.461949 3.259885-3.259886 3.259885h-33.046838V377.666723h86.068974c25.665098 0 46.542364-20.879266 46.542364-46.542364v-8.171713c0.002-25.663098-20.877266-46.540364-46.540364-46.540364z m-661.178755-52.068169L493.465652 36.018734a31.58689 31.58689 0 0 1 37.058697-0.008l260.192852 188.337379c14.615486 10.24364 18.119363 34.564785 2.959896 48.752286l-245.571366-177.725752a61.459839 61.459839 0 0 0-72.211462-0.002l-245.571366 177.727752c-12.841549-11.073611-14.033507-36.906702 2.961896-48.756286z m-120.291771 106.780246v-8.171713c0-9.121679 7.421739-16.541418 16.543418-16.541418h86.068974v41.258549H129.536446c-9.121679 0-16.543418-7.421739-16.543418-16.545418z m117.611865 541.28897a14.999473 14.999473 0 0 0-14.999473 14.999473v106.574253H182.558582c-1.797937 0-3.259885-1.461949-3.259885-3.259885v-613.058447h36.306723v438.070599c0 8.285709 6.715764 14.999473 14.999473 14.999472s14.999473-6.713764 14.999472-14.999472V299.071486l247.877286-179.397693a31.514892 31.514892 0 0 1 37.034698 0.002l247.877286 179.395693v694.915569H245.604365v-106.574253a14.999473 14.999473 0 0 0-14.999472-14.999473z m680.402079-541.28897c0 9.123679-7.421739 16.543418-16.543418 16.543418h-86.068974v-41.258549h86.068974c9.123679 0 16.543418 7.421739 16.543418 16.541418z"
        p-id="19225"></path>
    <path
        d="M511.999 699.603405c9.919651 0 19.677308-0.707975 29.234972-2.045929l25.261112 88.986872c-21.305251 13.349531-35.512752 37.026698-35.512751 63.971751 0 41.604537 33.84681 75.451347 75.451347 75.451347s75.451347-33.84681 75.451347-75.451347c-0.119996-45.144413-40.912562-81.839123-87.202934-74.53138l-24.051154-84.731021c87.220934-25.429106 151.136687-106.09427 151.136686-201.414919 0-101.466433-72.347457-188.261381-172.027952-206.376744-8.155713-1.493947-15.959439 3.923862-17.439387 12.075575a14.999473 14.999473 0 0 0 12.075576 17.439387c85.406997 15.523454 147.394818 89.904839 147.394818 176.863782 0 99.122515-80.643165 179.76568-179.76568 179.76568s-179.76568-80.641165-179.76568-179.76568c0-86.886945 61.929823-161.258331 147.252823-176.837783a14.999473 14.999473 0 1 0-5.387811-29.510963c-99.584499 18.183361-171.863958 104.96431-171.863958 206.348746-0.006 115.663934 94.094692 209.762626 209.758626 209.762626z m139.885082 150.912694c0 25.061119-20.389283 45.452402-45.452402 45.452402-25.061119 0-45.452402-20.389283-45.452402-45.452402s20.389283-45.454402 45.452402-45.454402c25.063119 0.002 45.452402 20.391283 45.452402 45.454402z"
        p-id="19226"></path>
    <path
        d="M505.16124 510.666047c3.671871 1.215957 7.227746 3.439879 15.603452-1.179959l63.41377-45.666394a14.999473 14.999473 0 1 0-17.531383-24.343144l-39.650606 28.550996v-110.058131c0-8.285709-6.715764-14.999473-14.999473-14.999473s-14.999473 6.713764-14.999473 14.999473v139.345101a15.009472 15.009472 0 0 0 8.163713 13.351531z"
        p-id="19227"></path>
    <path
        d="M375.541797 489.838779m-14.727482 0a14.727482 14.727482 0 1 0 29.454965 0 14.727482 14.727482 0 1 0-29.454965 0Z"
        p-id="19228"></path>
    <path
        d="M511.999 627.48194m-14.727482 0a14.727482 14.727482 0 1 0 29.454964 0 14.727482 14.727482 0 1 0-29.454964 0Z"
        p-id="19229"></path>
    <path
        d="M650.378135 489.838779m-14.727482 0a14.727482 14.727482 0 1 0 29.454964 0 14.727482 14.727482 0 1 0-29.454964 0Z"
        p-id="19230"></path>
</svg>