<svg class="icon" style="width: 1em;height: 1em;vertical-align: middle;fill: currentColor;overflow: hidden;"
    viewBox="0 0 1024 1024" version="1.1" xmlns="http://www.w3.org/2000/svg" p-id="14144">
    <path d="M0 0h1024v1024H0V0z" fill="#FFFFFF" fill-opacity=".01" p-id="14145"></path>
    <path d="M0 0h1024v1024H0z" fill="#FFFFFF" fill-opacity=".01" p-id="14146"></path>
    <path
        d="M874.666667 810.666667h-63.616v-85.333334H874.666667c11.733333 0 21.333333-9.6 21.333333-21.333333v-554.666667a21.333333 21.333333 0 0 0-21.333333-21.333333h-554.666667a21.333333 21.333333 0 0 0-21.333333 21.333333v62.421334H213.333333V149.333333C213.333333 90.538667 261.205333 42.666667 320 42.666667h554.666667C933.504 42.666667 981.333333 90.538667 981.333333 149.333333v554.666667c0 58.837333-47.829333 106.666667-106.666666 106.666667z"
        fill="#333333" p-id="14147"></path>
    <path
        d="M149.333333 213.333333h597.333334A64 64 0 0 1 810.666667 277.333333v597.333334a64 64 0 0 1-64 64h-597.333334A64 64 0 0 1 85.333333 874.666667v-597.333334A64 64 0 0 1 149.333333 213.333333z"
        fill="#2F88FF" p-id="14148"></path>
    <path
        d="M746.666667 981.333333h-597.333334A106.794667 106.794667 0 0 1 42.666667 874.666667v-597.333334C42.666667 218.538667 90.538667 170.666667 149.333333 170.666667h597.333334C805.504 170.666667 853.333333 218.538667 853.333333 277.333333v597.333334c0 58.837333-47.829333 106.666667-106.666666 106.666666zM149.333333 256a21.333333 21.333333 0 0 0-21.333333 21.333333v597.333334a21.333333 21.333333 0 0 0 21.333333 21.333333h597.333334c11.733333 0 21.333333-9.6 21.333333-21.333333v-597.333334a21.333333 21.333333 0 0 0-21.333333-21.333333h-597.333334z"
        fill="#333333" p-id="14149"></path>
    <path
        d="M611.797333 563.114667l-62.08-58.581334 40.746667-43.178666a38.101333 38.101333 0 0 0-0.682667-54.229334 39.808 39.808 0 0 0-27.562666-11.818666c-8.746667 0.810667-18.986667 3.541333-25.770667 10.282666l-112.298667 116.906667-61.525333-59.136 112.896-117.504a120.533333 120.533333 0 0 1 86.144-35.882667h1.706667c32.682667 0.426667 63.488 13.525333 86.741333 36.821334 48.384 48.384 49.066667 126.464 1.536 173.994666l-39.850667 42.325334zM312.661333 830.976a125.610667 125.610667 0 0 1-88.917333-36.906667 124.629333 124.629333 0 0 1-36.053333-89.045333c0-33.877333 13.141333-66.389333 36.053333-89.301333 0.554667-0.554667 22.656-21.888 33.322667-32.597334l60.458666 60.245334c-11.050667 11.093333-33.962667 33.237333-33.962666 33.237333-6.485333 6.442667-10.538667 16.981333-10.538667 28.373333a40.533333 40.533333 0 0 0 11.050667 28.714667c15.104 15.104 39.04 15.829333 53.333333 1.493333l111.658667-101.418666 57.386666 63.146666-110.208 100.096a117.76 117.76 0 0 1-83.584 33.962667z"
        fill="#FFFFFF" p-id="14150"></path>
    <path
        d="M368 634.538667a125.141333 125.141333 0 0 1-36.522667-80.085334 121.130667 121.130667 0 0 1 34.986667-93.952l60.330667 60.330667a35.328 35.328 0 0 0-10.197334 27.818667 39.893333 39.893333 0 0 0 11.690667 25.472l-60.288 60.416zM507.904 695.552l-60.330667-60.330667a35.456 35.456 0 0 0 10.282667-25.770666 39.765333 39.765333 0 0 0-11.776-27.562667l60.330667-60.330667c48.384 48.341333 49.066667 126.464 1.493333 173.994667z"
        fill="#FFFFFF" p-id="14151"></path>
</svg>