<svg class="icon" style="width: 1.0048828125em;height: 1em;vertical-align: middle;fill: currentColor;overflow: hidden;"
    viewBox="0 0 1029 1024" version="1.1" xmlns="http://www.w3.org/2000/svg" p-id="23577">
    <path
        d="M34.133333 878.933333c0 8.533333-8.533333 17.066667-17.066666 17.066667M0 878.933333V115.2C0 76.8 29.866667 42.666667 68.266667 42.666667h192c17.066667 0 29.866667 8.533333 38.4 21.333333l68.266666 89.6h469.333334c38.4 0 68.266667 34.133333 68.266666 72.533333v55.466667c0 8.533333-8.533333 17.066667-17.066666 17.066667"
        fill="#C69F6B" p-id="23578"></path>
    <path
        d="M38.4 853.333333L145.066667 298.666667l38.4-17.066667 750.933333-4.266667 34.133333 29.866667v81.066667h-307.2l-81.066666 38.4-55.466667 51.2-46.933333 21.333333H200.533333l-29.866666 42.666667z"
        p-id="23579"></path>
    <path
        d="M34.133333 900.266667s-4.266667 0 0 0c-12.8-4.266667-17.066667-12.8-17.066666-21.333334L132.266667 311.466667c4.266667-29.866667 29.866667-46.933333 55.466666-46.933334h742.4c17.066667 0 34.133333 8.533333 46.933334 21.333334 12.8 12.8 17.066667 34.133333 12.8 51.2L981.333333 392.533333c0 8.533333-8.533333 17.066667-17.066666 17.066667s-17.066667-8.533333-17.066667-21.333333l4.266667-55.466667c0-8.533333 0-12.8-4.266667-21.333333 0-8.533333-8.533333-12.8-17.066667-12.8H187.733333c-12.8 0-21.333333 8.533333-21.333333 17.066666L51.2 883.2c0 8.533333-8.533333 17.066667-17.066667 17.066667"
        p-id="23580"></path>
    <path
        d="M832 955.733333H68.266667c-42.666667 0-68.266667-25.6-68.266667-72.533333v-8.533333l136.533333-349.866667c12.8-29.866667 29.866667-46.933333 55.466667-46.933333h251.733333c38.4 0 72.533333-17.066667 98.133334-46.933334 29.866667-38.4 76.8-59.733333 123.733333-59.733333h302.933333c17.066667 0 34.133333 8.533333 46.933334 21.333333 12.8 12.8 17.066667 34.133333 12.8 51.2l-93.866667 426.666667c-17.066667 51.2-59.733333 85.333333-102.4 85.333333z"
        fill="#DDB67B" p-id="23581"></path>
    <path
        d="M819.2 558.933333h-273.066667c-8.533333 0-17.066667-8.533333-17.066666-17.066666s8.533333-17.066667 17.066666-17.066667h273.066667c8.533333 0 17.066667 8.533333 17.066667 17.066667s-8.533333 17.066667-17.066667 17.066666M819.2 631.466667H682.666667c-8.533333 0-17.066667-8.533333-17.066667-17.066667s4.266667-17.066667 17.066667-17.066667h136.533333c8.533333 0 17.066667 8.533333 17.066667 17.066667s-8.533333 17.066667-17.066667 17.066667"
        p-id="23582"></path>
</svg>