<svg class="icon" style="width: 1em;height: 1em;vertical-align: middle;fill: currentColor;overflow: hidden;"
    viewBox="0 0 1024 1024" version="1.1" xmlns="http://www.w3.org/2000/svg" p-id="15626">
    <path
        d="M765.652 523.586c-22.812-44.436-76.532-77.874-159.654-99.31-41.748-10.782-80.092-15.686-99.936-17.686L425.376 184.718a21.288 21.288 0 0 0-20.032-14.032H149.35a21.346 21.346 0 0 0-21 17.5L43.008 657.504c-2.062 11.438 5.406 22.5 16.812 24.75l213.34 42.688c1.376 0.25 2.782 0.376 4.188 0.376h469.304c11.782 0 21.344-9.5 21.344-21.312v-170.668c0-3.378-0.812-6.72-2.344-9.752z"
        fill="#FFCE54" p-id="15627"></path>
    <path
        d="M941.742 607.258c-16.718-13.75-33.968-28-51.876-46.188-30.844-31.39-46.656-72.702-47-122.794-0.282-38.874 9.282-68.624 9.376-68.874a21.32 21.32 0 0 0-2.968-19.218 21.28 21.28 0 0 0-17.28-8.844h-85.342c-11.782 0-21.312 9.562-21.312 21.344v384.008c0 11.75 9.532 21.312 21.312 21.312h255.994c11.782 0 21.344-9.562 21.344-21.312 0-71.564-38.122-103-82.248-139.434z"
        fill="#ED5564" p-id="15628"></path>
    <path
        d="M725.34 746.692c0 11.75 9.532 21.312 21.312 21.312h255.994c11.782 0 21.344-9.562 21.344-21.312 0-16.124-1.938-30.124-5.438-42.688H725.34v42.688z"
        fill="#DA4453" p-id="15629"></path>
    <path
        d="M463.47 554.696L377.596 292.06a21.286 21.286 0 0 0-20.25-14.718h-146.684a21.338 21.338 0 0 0-21.032 17.812L145.976 554.696h317.494z"
        fill="#4FC2E9" p-id="15630"></path>
    <path
        d="M192.006 469.336c-105.874 0-191.996 86.108-191.996 191.98 0 105.876 86.124 191.996 191.996 191.996s191.996-86.122 191.996-191.996c0-105.87-86.124-191.98-191.996-191.98z"
        fill="#434A54" p-id="15631"></path>
    <path
        d="M192.006 597.32c-35.28 0-64 28.746-64 63.996 0 35.312 28.718 64 64 64s64-28.688 64-64c-0.002-35.25-28.718-63.996-64-63.996z"
        fill="#CCD1D9" p-id="15632"></path>
    <path
        d="M639.996 597.32c-70.59 0-127.996 57.434-127.996 127.996 0 70.624 57.406 127.996 127.996 127.996 70.594 0 128-57.372 128-127.996 0-70.562-57.406-127.996-128-127.996z"
        fill="#434A54" p-id="15633"></path>
    <path
        d="M618.654 725.316c0 11.812 9.562 21.376 21.342 21.376 11.782 0 21.344-9.562 21.344-21.376 0-11.75-9.562-21.312-21.344-21.312-11.78 0-21.342 9.562-21.342 21.312z"
        fill="#CCD1D9" p-id="15634"></path>
    <path
        d="M192.006 469.336c-7.218 0-14.312 0.406-21.342 1.188v20.156c0 11.782 9.562 21.312 21.342 21.312s21.344-9.532 21.344-21.312v-20.156a193.174 193.174 0 0 0-21.344-1.188zM192.006 810.692c-11.782 0-21.342 9.562-21.342 21.308v20.124c7.03 0.812 14.124 1.188 21.342 1.188s14.312-0.376 21.344-1.188V832c0-11.746-9.562-21.308-21.344-21.308z"
        fill="#656D78" p-id="15635"></path>
    <path
        d="M96.008 495.056a195.852 195.852 0 0 0-17.876 11.718l10.062 17.436c5.906 10.188 18.938 13.688 29.156 7.812 10.186-5.906 13.686-18.936 7.812-29.156l-10.094-17.438a202.384 202.384 0 0 0-19.06 9.628zM266.662 790.692c-10.188 5.876-13.688 18.938-7.812 29.124l10.094 17.434c6.438-2.812 12.812-6.062 19.062-9.622 6.25-3.624 12.188-7.562 17.876-11.688l-10.062-17.438c-5.91-10.248-18.94-13.748-29.158-7.81z"
        fill="#656D78" p-id="15636"></path>
    <path
        d="M25.728 565.32a194.748 194.748 0 0 0-9.624 19.062l17.436 10.124c10.218 5.876 23.25 2.376 29.156-7.812a21.416 21.416 0 0 0-7.812-29.188l-17.468-10.062a201.664 201.664 0 0 0-11.688 17.876zM321.316 736.004c-5.876 10.188-2.376 23.25 7.812 29.124l17.468 10.062a193.276 193.276 0 0 0 11.688-17.876c3.594-6.25 6.812-12.562 9.624-19.062l-17.438-10.062c-10.218-5.874-23.248-2.374-29.154 7.814z"
        fill="#656D78" p-id="15637"></path>
    <path
        d="M0.01 661.316c0 7.25 0.406 14.376 1.188 21.376h20.156c11.78 0 21.312-9.562 21.312-21.376 0-11.75-9.532-21.312-21.312-21.312H1.198a192.08 192.08 0 0 0-1.188 21.312zM341.346 661.316c0 11.812 9.532 21.376 21.312 21.376h20.156a192.37 192.37 0 0 0 0-42.688H362.66c-11.782 0-21.314 9.562-21.314 21.312z"
        fill="#656D78" p-id="15638"></path>
    <path
        d="M25.728 757.316a193.402 193.402 0 0 0 11.688 17.876l17.468-10.062c10.188-5.876 13.688-18.938 7.812-29.124-5.906-10.188-18.938-13.688-29.156-7.812l-17.436 10.062c2.812 6.498 6.03 12.81 9.624 19.06zM321.348 586.696c5.876 10.188 18.906 13.688 29.124 7.812l17.438-10.062a188.762 188.762 0 0 0-9.624-19.124 202.112 202.112 0 0 0-11.688-17.876l-17.468 10.062a21.38 21.38 0 0 0-7.782 29.188z"
        fill="#656D78" p-id="15639"></path>
    <path
        d="M96.008 827.628a188.696 188.696 0 0 0 19.062 9.622l10.094-17.434c5.874-10.188 2.374-23.25-7.812-29.124-10.218-5.938-23.25-2.438-29.156 7.75l-10.062 17.5a195.274 195.274 0 0 0 17.874 11.686zM266.662 532.024c10.218 5.876 23.25 2.376 29.156-7.812l10.062-17.436a195.16 195.16 0 0 0-17.876-11.718 194.304 194.304 0 0 0-19.062-9.624l-10.094 17.438c-5.874 10.214-2.374 23.246 7.814 29.152z"
        fill="#656D78" p-id="15640"></path>
    <path
        d="M618.654 599.132v19.558c0 11.75 9.562 21.312 21.342 21.312 11.782 0 21.344-9.562 21.344-21.312v-19.558a126.51 126.51 0 0 0-42.686 0zM639.996 810.692c-11.78 0-21.342 9.5-21.342 21.308v19.562c6.938 1.124 14.06 1.75 21.342 1.75s14.406-0.624 21.344-1.75V832c0-11.808-9.562-21.308-21.344-21.308zM565.844 621.004a125.956 125.956 0 0 0-16.344 13.812 126.224 126.224 0 0 0-13.844 16.376l13.844 13.812c8.312 8.312 21.844 8.312 30.156 0 8.342-8.312 8.342-21.812 0-30.188l-13.812-13.812zM700.34 785.692c-8.344 8.312-8.344 21.812 0 30.124l13.812 13.876a131.054 131.054 0 0 0 16.344-13.812 130.642 130.642 0 0 0 13.844-16.376l-13.844-13.812c-8.312-8.376-21.844-8.376-30.156 0zM554.656 725.316c0-11.75-9.532-21.312-21.312-21.312h-19.562a129.638 129.638 0 0 0-1.782 21.312c0 7.312 0.624 14.438 1.782 21.376h19.562c11.78 0 21.312-9.564 21.312-21.376zM766.214 704.004h-19.562c-11.782 0-21.312 9.562-21.312 21.312 0 11.812 9.532 21.376 21.312 21.376h19.562c1.156-6.938 1.782-14.062 1.782-21.376a129.42 129.42 0 0 0-1.782-21.312zM549.5 785.692l-13.844 13.812a130.786 130.786 0 0 0 13.844 16.376 130.91 130.91 0 0 0 16.344 13.812l13.812-13.876c8.342-8.312 8.342-21.812 0-30.124-8.312-8.376-21.844-8.376-30.156 0zM730.496 665.004l13.844-13.812a126.492 126.492 0 0 0-13.844-16.376 125.824 125.824 0 0 0-16.344-13.812l-13.812 13.812c-8.344 8.376-8.344 21.876 0 30.188 8.312 8.312 21.844 8.312 30.156 0z"
        fill="#656D78" p-id="15641"></path>
    <path
        d="M426.658 213.342H128.006c-11.78 0-21.342-9.53-21.342-21.342 0-11.75 9.562-21.312 21.342-21.312h298.652C438.438 170.686 448 180.25 448 192c0 11.812-9.562 21.342-21.342 21.342z"
        fill="#F6BB42" p-id="15642"></path>
</svg>