<svg class="icon" style="width: 1.232421875em;height: 1em;vertical-align: middle;fill: currentColor;overflow: hidden;"
    viewBox="0 0 1262 1024" version="1.1" xmlns="http://www.w3.org/2000/svg" p-id="3300">
    <path
        d="M631.691082 0C852.949353 0 1032.311051 176.767695 1032.311051 394.817592c0 218.049898-179.361699 394.817592-400.619969 394.817593S231.071113 612.86749 231.071113 394.817592C231.071113 176.767695 410.432812 0 631.691082 0z"
        fill="#F0FEFF" p-id="3301"></path>
    <path
        d="M356.607236 126.781928s92.035932 18.977184 143.284569 52.955218c0 0 128.744496-100.19339 258.905455-6.416745 0 0 92.257787-46.333683 133.522924-40.121728l102.582604 43.330101 21.178675 52.972284 9.761645 49.746846-16.280786 40.121728-34.216956 35.309167-29.302002 35.292102-53.72318 6.433812s-80.14106-3.276636-89.561389-16.05893l-79.782677 70.618335-104.203857 24.079863-76.540173-20.87149-42.340283-46.538473-35.821142-32.100795s-72.563838 30.0017-83.042248 25.684049l-96.080529-30.496608-21.161609-40.121727-24.421179-54.559406 3.259571-46.538473 30.940319-43.3301 29.302002-28.892422 53.740246-30.496608z"
        fill="#FFFFFF" p-id="3302"></path>
    <path
        d="M242.624669 515.165708s96.967952-97.343399 240.98635-24.079862l73.280603 57.767778 149.80371 3.208373s72.615036-75.157842 97.701781-73.826709c0 0 127.328034-50.241755 210.063097 30.479543l11.399964 242.33455-172.603637 3.208373-620.410579-3.191307 9.778711-235.900739z"
        fill="#FFFFFF" p-id="3303"></path>
    <path
        d="M631.435095 537.914438c-73.877906 0-217.043015 39.695082-217.043015 116.6619v213.510391h434.068964v-213.322667c0-77.154542-143.148043-116.849624-217.025949-116.849624z"
        fill="#A4EDF1" p-id="3304"></path>
    <path d="M513.032482 673.963102h236.78816v350.002766H513.032482V673.963102z" fill="#A4EDF1" p-id="3305"></path>
    <path
        d="M1223.345766 615.632152v-136.048665c0-32.459177-73.024615-58.706398-120.655301-58.706398a147.960602 147.960602 0 0 0-66.812659 19.489159l-19.574488-33.756179a186.512274 186.512274 0 0 1 86.404213-24.591837c54.13276 0 160.009066 29.489726 160.009067 97.66765L1262.87019 615.632152h-39.524424z m-106.081096-252.795894l-0.375448 0.085329a126.065163 126.065163 0 0 1-63.433628-17.151142l20.154725-33.483126c13.12361 7.679616 28.107395 11.707148 43.398364 11.690082 47.903738-1.552989 85.943436-40.27532 85.943436-87.513491s-38.039698-85.960502-85.943436-87.496425a86.267687 86.267687 0 0 0-57.818976 22.253821l-26.622669-28.653501a125.860374 125.860374 0 0 1 84.697632-32.459177c69.474926 1.860174 124.819359 57.887239 124.819359 126.355282 0 68.485109-55.344433 124.512174-124.819359 126.372348z m-79.953336-48.774094c-21.229872 63.740813-81.711114 106.763728-149.786644 106.541872l0.563172-0.460776a160.845291 160.845291 0 0 1-47.050447-6.860457l11.570621-37.101079c52.648034 16.144259 109.613719-6.024232 136.850758-53.279469a114.34095 114.34095 0 0 0-23.721481-143.096845 118.590337 118.590337 0 0 0-146.902521-7.645485l-22.86819-31.725347a158.950986 158.950986 0 0 1 184.720364 0.375448c54.968985 39.558555 77.820109 109.511324 56.624368 173.252138zM632.663833 498.970251c-109.050547-0.511974-197.058947-87.923071-196.71763-195.369431 0.341316-107.429295 88.929954-194.311351 197.963435-194.140693 109.033482 0.170658 197.332 87.325767 197.332 194.755062-0.32425 107.804743-89.185941 194.959852-198.577805 194.755062z m0-349.900371v-0.102395c-86.984451 0.716764-156.988417 70.652467-156.52764 156.356982 0.477843 85.704515 71.215639 154.889322 158.217156 154.684533 86.984451-0.20479 157.415063-69.713848 157.449194-155.418363-0.460777-86.216489-71.65935-155.776744-159.13871-155.520757z m-336.213589 30.32595a114.358015 114.358015 0 0 0-23.619086 143.113911c27.237038 47.238171 84.219789 69.389597 136.867824 53.211206l11.570621 37.084013a160.282119 160.282119 0 0 1-46.58967 7.3383c-67.631818-0.273053-127.447494-43.278903-148.370182-106.644268-20.922687-63.382431 1.774845-132.823226 56.300119-172.245255a158.575538 158.575538 0 0 1 183.645217-1.279936l-22.86819 31.708282a118.6586 118.6586 0 0 0-146.936653 7.713747zM145.690849 149.06988c-47.920804 1.535923-85.943436 40.258254-85.943436 87.496425s38.022632 85.960502 85.943436 87.496425a85.60212 85.60212 0 0 0 43.295968-11.690082l20.13766 33.483126a125.979834 125.979834 0 0 1-63.433628 17.065813c-69.45786-1.860174-124.802293-57.887239-124.802293-126.355282 0-68.485109 55.344433-124.512174 124.802293-126.355282a125.740913 125.740913 0 0 1 84.714697 32.459177l-26.639734 28.6535a85.977568 85.977568 0 0 0-58.074963-22.25382z m14.318217 232.863023c30.411279 1.041015 60.088729 9.488592 86.387148 24.574772l-19.574488 33.756178a148.216589 148.216589 0 0 0-66.81266-19.472093c-47.630685 0-120.672366 26.33255-120.672366 58.706398l0.102395 136.133994H0v-136.048665c0-68.160859 106.06403-97.650584 160.009066-97.650584z m214.858591 58.791727c33.039415 0 95.244304 11.775411 131.765145 44.14926l-26.452011 28.841224c-23.619086-21.059214-73.024615-34.029232-105.227805-34.029232-46.572605 0-118.385547 25.035548-118.385548 58.313885V751.749079h-39.541489V537.914438c0-67.887806 104.476909-97.189807 157.841708-97.189808zM631.435095 518.630068c84.987751 0 236.805226 45.258537 236.805226 136.133994v213.305601h-39.541489V654.764062c0-59.371965-129.597787-97.189807-197.639185-97.189807s-197.656251 37.834908-197.656251 97.189807v213.305601h-38.773527V654.764062c0-90.585337 151.817476-136.133993 236.805226-136.133994z m-98.72573 505.3358h-39.439095V673.963102h39.439095v350.002766z m236.78816 0h-39.439095V673.963102h39.439095v350.002766z m13.277203-510.353149l-26.452011-28.841224c36.333117-32.356782 98.623335-44.132193 131.765145-44.132194 53.364798 0 157.841708 29.387331 157.841708 97.206873l-0.102395 213.919971H1006.371015V537.914438c0-33.295402-71.795877-58.313884-118.385548-58.313885-32.20319-0.017066-81.591654 12.970018-105.210739 34.012166z"
        fill="#00BBC4" p-id="3306"></path>
</svg>